<?xml version="1.0" standalone="no"?>
<!DOCTYPE svg PUBLIC "-//W3C//DTD SVG 20010904//EN"
 "http://www.w3.org/TR/2001/REC-SVG-20010904/DTD/svg10.dtd">
<svg version="1.0" xmlns="http://www.w3.org/2000/svg"
 width="512.000000pt" height="512.000000pt" viewBox="0 0 512.000000 512.000000"
 preserveAspectRatio="xMidYMid meet">
<metadata>
Created by potrace 1.14, written by Peter Selinger 2001-2017
</metadata>
<g transform="translate(0.000000,512.000000) scale(0.100000,-0.100000)"
fill="#000000" stroke="none">
<path d="M1750 5110 c-150 -44 -229 -210 -166 -346 26 -56 96 -122 139 -131
27 -5 27 -6 27 -89 0 -83 -1 -85 -27 -95 -47 -17 -183 -89 -252 -132 -274
-170 -525 -426 -687 -699 -30 -51 -71 -128 -91 -170 -25 -54 -42 -78 -55 -79
-10 0 -34 -1 -53 -1 -85 0 -95 2 -95 17 0 27 -49 94 -91 124 -46 34 -131 55
-185 47 -78 -13 -147 -64 -187 -140 -31 -60 -29 -165 5 -226 102 -181 366
-172 450 16 l19 44 54 0 54 0 -16 -52 c-8 -29 -17 -57 -20 -61 -5 -9 -24 -93
-48 -213 -14 -68 -26 -164 -29 -224 -2 -41 -12 -46 -29 -13 -40 75 -116 117
-212 118 -110 0 -184 -48 -230 -147 -75 -162 47 -347 228 -348 37 0 74 7 102
20 47 21 111 80 120 111 10 30 21 22 21 -13 1 -102 36 -297 78 -443 l33 -115
-52 0 c-53 0 -53 0 -75 45 -46 94 -148 153 -248 142 -93 -10 -168 -62 -207
-143 -21 -44 -27 -134 -12 -179 18 -54 67 -114 115 -142 40 -24 58 -28 122
-28 112 0 190 48 232 142 l19 43 77 0 78 0 32 -72 c158 -348 473 -694 821
-901 52 -31 127 -71 168 -89 l73 -33 0 -80 0 -81 -34 -12 c-83 -30 -148 -122
-152 -216 -4 -99 35 -174 121 -229 45 -29 56 -32 130 -32 69 1 86 4 120 27
120 77 159 208 100 334 -19 41 -84 99 -129 115 -36 13 -36 13 -36 72 0 37 4
56 10 52 41 -25 321 -90 440 -101 36 -4 72 -8 80 -10 8 -1 28 -3 44 -3 27 -1
27 -2 -20 -33 -199 -134 -121 -434 118 -454 105 -9 200 45 244 141 57 120 7
266 -111 328 l-30 16 30 1 c17 1 37 3 45 4 8 2 46 6 84 10 38 4 79 9 90 11 12
3 32 7 46 9 78 14 174 38 238 59 l72 24 0 -56 c0 -56 0 -57 -36 -70 -135 -49
-195 -232 -118 -358 55 -89 159 -136 264 -118 58 10 129 62 165 119 27 44 30
58 30 125 0 58 -6 86 -22 117 -27 50 -80 98 -127 115 l-36 13 0 81 1 80 117
57 c390 189 728 526 919 918 l58 119 80 0 80 1 19 -45 c10 -25 37 -62 62 -84
121 -106 313 -68 388 76 21 41 30 133 17 180 -27 100 -128 177 -236 182 -100
4 -204 -63 -236 -153 -13 -36 -14 -36 -70 -36 l-56 0 18 56 c20 60 57 208 65
259 3 17 7 41 9 55 6 35 18 139 21 175 1 17 3 37 3 45 1 8 11 -1 21 -21 25
-48 90 -103 139 -117 120 -37 235 8 298 115 38 65 39 168 4 237 -40 77 -133
136 -215 136 -89 0 -189 -59 -229 -135 -9 -16 -17 -25 -17 -20 -4 27 -8 68
-14 145 -4 47 -10 88 -12 91 -2 4 -6 24 -10 45 -3 22 -10 57 -16 79 -5 22 -12
49 -14 60 -2 11 -15 55 -28 98 l-24 77 59 0 c38 0 59 -4 59 -11 0 -53 92 -149
162 -170 116 -35 246 19 299 124 25 47 33 143 17 190 -57 164 -254 226 -390
122 -37 -28 -53 -50 -95 -133 -1 -4 -56 -5 -123 -3 -34 1 -36 3 -82 99 -101
209 -221 375 -398 552 -176 177 -333 289 -548 395 l-102 50 0 77 0 76 44 22
c98 47 141 118 141 230 0 85 -14 119 -71 174 -52 51 -99 69 -174 70 -75 0
-125 -20 -176 -71 -51 -50 -69 -98 -69 -178 0 -106 46 -179 141 -225 44 -22
44 -22 44 -75 l0 -53 -62 19 c-91 28 -206 57 -255 64 -23 3 -57 8 -75 11 -86
12 -146 18 -183 17 l-40 -1 36 19 c48 24 116 103 129 148 47 170 -67 325 -240
325 -75 0 -129 -23 -179 -77 -46 -48 -61 -83 -68 -153 -5 -53 -2 -69 20 -115
30 -63 49 -86 97 -116 19 -13 32 -23 28 -24 -5 -1 -11 -2 -15 -3 -5 -1 -47 -6
-94 -10 -72 -6 -157 -21 -299 -51 -14 -3 -54 -15 -90 -26 -36 -11 -71 -22 -77
-24 -9 -3 -13 11 -13 51 0 49 2 55 25 64 169 64 219 267 101 407 -50 59 -171
95 -246 73z"/>
</g>
</svg>
